<svg width="18" height="25" viewBox="0 0 18 25" fill="none" xmlns="http://www.w3.org/2000/svg">
<path fill-rule="evenodd" clip-rule="evenodd" d="M8.82996 21.5897C11.8537 21.5897 14.3049 19.1385 14.3049 16.1148C14.3049 13.0911 11.8537 10.6399 8.82996 10.6399C5.80626 10.6399 3.35507 13.0911 3.35507 16.1148C3.35507 19.1385 5.80626 21.5897 8.82996 21.5897ZM8.82996 24.5854C13.5081 24.5854 17.3006 20.793 17.3006 16.1148C17.3006 11.4366 13.5081 7.64419 8.82996 7.64419C4.15179 7.64419 0.359375 11.4366 0.359375 16.1148C0.359375 20.793 4.15179 24.5854 8.82996 24.5854Z" fill="black"/>
<path d="M7.28047 0H10.3795V8.16069H7.28047V0Z" fill="black"/>
</svg>
