<svg width="39" height="48" viewBox="0 0 39 48" fill="none" xmlns="http://www.w3.org/2000/svg">
<path d="M9.34478 18.7144L17.3505 0.275391H20.0363V5.49203L14.3548 18.7144H18.5901V16.3385C18.5901 15.76 19.5542 15.7187 20.0363 15.7704V23.053C18.7141 23.053 18.5212 22.6054 18.5901 22.3816V20.3156H13.5801L1.18409 47.9999H0.719238L3.86988 38.4447C3.86988 38.4447 1.08079 37.36 2.01049 35.0358C2.94018 32.7115 8.51838 20.3156 8.51838 20.3156H2.01049V18.7144H9.34478Z" fill="#FF9900"/>
<path d="M30.2113 18.7144L22.2056 0.275391H19.5198V5.49203L25.2013 18.7144H20.966V16.3385C20.966 15.76 20.0019 15.7187 19.5198 15.7704V23.053C20.8421 23.053 21.0349 22.6054 20.966 22.3816V20.3156H25.9761L38.372 47.9999H38.8369L35.6862 38.4447C35.6862 38.4447 38.4753 37.36 37.5456 35.0358C36.6159 32.7115 31.0377 20.3156 31.0377 20.3156H37.5456V18.7144H30.2113Z" fill="#FF9900"/>
</svg>
